<svg width="24" height="24" viewBox="0 0 24 24" fill="none" xmlns="http://www.w3.org/2000/svg">
<mask id="mask0_2_1268" style="mask-type:luminance" maskUnits="userSpaceOnUse" x="2" y="6" width="20" height="17">
<path fill-rule="evenodd" clip-rule="evenodd" d="M2 6.54004H21.5861V22.7218H2V6.54004Z" fill="white"/>
</mask>
<g mask="url(#mask0_2_1268)">
<path fill-rule="evenodd" clip-rule="evenodd" d="M6.71555 8.04002C6.27455 8.04002 4.80053 8.21802 4.37752 10.502L3.60552 16.5021C3.35451 18.1851 3.54851 19.4032 4.18352 20.1402C4.81053 20.8682 5.93254 21.2222 7.61256 21.2222H15.9607C17.0087 21.2222 18.4397 21.0132 19.3037 20.0152C19.9897 19.2241 20.2257 18.0461 20.0057 16.5131L19.2267 10.461C18.8947 8.97003 18.0187 8.04002 16.8947 8.04002H6.71555ZM15.9607 22.7222H7.6126C5.46957 22.7222 3.97655 22.1972 3.04754 21.1182C2.11453 20.0362 1.80253 18.4132 2.12053 16.2951L2.89654 10.2691C3.40655 7.50605 5.27157 6.54004 6.71558 6.54004H16.8947C18.3447 6.54004 20.1077 7.50305 20.7027 10.2041L21.4918 16.3111C21.7748 18.2822 21.4208 19.8632 20.4377 20.9972C19.4597 22.1252 17.9117 22.7222 15.9607 22.7222Z" fill="#3D3D3D"/>
</g>
<path fill-rule="evenodd" clip-rule="evenodd" d="M16.0979 7.82024C15.6839 7.82024 15.3479 7.48424 15.3479 7.07025C15.3479 5.10127 13.7459 3.50029 11.7779 3.50029H11.7629C10.8219 3.50029 9.90493 3.87928 9.23994 4.54028C8.57194 5.20527 8.18895 6.12826 8.18895 7.07025C8.18895 7.48424 7.85295 7.82024 7.43896 7.82024C7.02496 7.82024 6.68896 7.48424 6.68896 7.07025C6.68896 5.73126 7.23296 4.42228 8.18095 3.47729C9.12594 2.5383 10.4289 2.00031 11.7599 2.00031H11.7809C14.5739 2.00031 16.8478 4.27428 16.8478 7.07025C16.8478 7.48424 16.5119 7.82024 16.0979 7.82024Z" fill="#3D3D3D"/>
<path fill-rule="evenodd" clip-rule="evenodd" d="M14.7433 12.3243H14.6973C14.2833 12.3243 13.9473 11.9883 13.9473 11.5743C13.9473 11.1603 14.2833 10.8243 14.6973 10.8243C15.1113 10.8243 15.4702 11.1603 15.4702 11.5743C15.4702 11.9883 15.1573 12.3243 14.7433 12.3243Z" fill="#3D3D3D"/>
<path fill-rule="evenodd" clip-rule="evenodd" d="M8.91218 12.3243H8.86718C8.45318 12.3243 8.11719 11.9883 8.11719 11.5743C8.11719 11.1603 8.45318 10.8243 8.86718 10.8243C9.28117 10.8243 9.64017 11.1603 9.64017 11.5743C9.64017 11.9883 9.32617 12.3243 8.91218 12.3243Z" fill="#3D3D3D"/>
</svg>
