<svg width="1408" height="969" viewBox="0 0 1408 969" fill="none" xmlns="http://www.w3.org/2000/svg">
<rect x="128" width="1" height="968.3" fill="#111827" fill-opacity="0.05"/>
<rect x="1279" width="1" height="968.3" fill="#111827" fill-opacity="0.05"/>
<g clip-path="url(#clip0_23_185)" filter="url(#filter0_f_23_185)">
<g clip-path="url(#clip1_23_185)">
<g clip-path="url(#clip2_23_185)">
<path d="M515.126 328.185C281.058 432.499 175.873 706.813 280.187 940.88C384.502 1174.95 658.815 1280.13 892.883 1175.82C1126.95 1071.5 1232.14 797.191 1127.82 563.123C1023.51 329.055 749.193 223.87 515.126 328.185Z" fill="url(#paint0_linear_23_185)" fill-opacity="0.26"/>
</g>
</g>
</g>
<rect y="60.8" width="1408" height="1" fill="#111827" fill-opacity="0.05"/>
<rect x="192" width="1" height="968.3" fill="#111827" fill-opacity="0.05"/>
<rect x="1215" width="1" height="968.3" fill="#111827" fill-opacity="0.05"/>
<defs>
<filter id="filter0_f_23_185" x="27.3091" y="75.3058" width="1353.39" height="1353.39" filterUnits="userSpaceOnUse" color-interpolation-filters="sRGB">
<feFlood flood-opacity="0" result="BackgroundImageFix"/>
<feBlend mode="normal" in="SourceGraphic" in2="BackgroundImageFix" result="shape"/>
<feGaussianBlur stdDeviation="32" result="effect1_foregroundBlur_23_185"/>
</filter>
<linearGradient id="paint0_linear_23_185" x1="280.187" y1="940.88" x2="850.345" y2="311.681" gradientUnits="userSpaceOnUse">
<stop stop-color="#D7F0FF"/>
<stop offset="0.333333" stop-color="#7042D2"/>
<stop offset="0.666667" stop-color="#6E3FF3"/>
<stop offset="1" stop-color="#912BBC"/>
</linearGradient>
<clipPath id="clip0_23_185">
<rect width="928" height="928" fill="white" transform="translate(1316.7 986.94) rotate(155.979)"/>
</clipPath>
<clipPath id="clip1_23_185">
<rect width="928" height="928" fill="white" transform="translate(1316.7 986.94) rotate(155.979)"/>
</clipPath>
<clipPath id="clip2_23_185">
<rect width="928" height="928" fill="white" transform="translate(1316.7 986.94) rotate(155.979)"/>
</clipPath>
</defs>
</svg>
