<svg width="20" height="19" viewBox="0 0 20 19" fill="none" xmlns="http://www.w3.org/2000/svg">
<path d="M20 6C19.9999 5.81854 19.9505 5.64051 19.857 5.485L17.148 0.97C16.9695 0.674841 16.7181 0.430573 16.4179 0.260692C16.1178 0.0908116 15.7789 0.00103553 15.434 0H4.566C3.868 0 3.211 0.372 2.852 0.971L0.143 5.485C0.0494899 5.64051 5.74309e-05 5.81854 0 6C0 7.005 0.386 7.914 1 8.618V18C1 18.2652 1.10536 18.5196 1.29289 18.7071C1.48043 18.8946 1.73478 19 2 19H10C10.2652 19 10.5196 18.8946 10.7071 18.7071C10.8946 18.5196 11 18.2652 11 18V13H15V18C15 18.2652 15.1054 18.5196 15.2929 18.7071C15.4804 18.8946 15.7348 19 16 19H18C18.2652 19 18.5196 18.8946 18.7071 18.7071C18.8946 18.5196 19 18.2652 19 18V8.618C19.614 7.914 20 7.005 20 6ZM17.984 6.251C17.9229 6.73408 17.6876 7.17827 17.3224 7.50027C16.9571 7.82227 16.4869 7.99995 16 8C14.897 8 14 7.103 14 6C14 5.932 13.975 5.872 13.961 5.808L13.981 5.804L13.22 2H15.434L17.984 6.251ZM8.007 6.065L8.819 2H11.18L11.993 6.065C11.958 7.138 11.08 8 10 8C8.92 8 8.042 7.138 8.007 6.065ZM4.566 2H6.78L6.02 5.804L6.04 5.808C6.025 5.872 6 5.932 6 6C6 7.103 5.103 8 4 8C3.51307 7.99995 3.04288 7.82227 2.67762 7.50027C2.31236 7.17827 2.07711 6.73408 2.016 6.251L4.566 2ZM8 14H4V11H8V14Z" fill="#CAB1FF"/>
</svg>
