<svg width="24" height="24" viewBox="0 0 24 24" fill="none" xmlns="http://www.w3.org/2000/svg">
<g clip-path="url(#clip0_392_602)">
<path d="M0 21.7727H2.63906C2.63906 19.7707 4.26783 18.1419 6.26991 18.1419C8.27194 18.1419 9.9007 19.7708 9.9007 21.7727H15.8132V23.9974H17.2196V21.7727H20.3954V16.1524H0V21.7727ZM19.0391 11.7691V5.80664C19.8296 5.51859 20.3955 4.75964 20.3955 3.8707V0H0V3.87084C0 4.75964 0.565969 5.51859 1.35647 5.80664V11.7691H0V14.7462H20.3954V13.1754H24V11.7691L19.0391 11.7691ZM17.6327 11.7691H16.5577V10.3385H15.1514V11.7691H14.0764V10.3385H12.6702V11.7691H10.1198C9.98559 10.1977 8.6647 8.95973 7.05923 8.95973C5.45358 8.95973 4.13264 10.1977 3.99844 11.7691H2.76267V5.80626C3.00252 5.71885 3.22406 5.58766 3.41602 5.41936C3.77855 5.73741 4.25334 5.93025 4.7723 5.93025C5.29139 5.93025 5.76619 5.73741 6.12872 5.41936C6.49125 5.73741 6.96605 5.93025 7.48519 5.93025C8.00409 5.93025 8.47889 5.73741 8.84142 5.41936C9.204 5.73741 9.67875 5.93025 10.1979 5.93025C10.7168 5.93025 11.1916 5.73741 11.5543 5.41936C11.9169 5.73741 12.3916 5.93025 12.9106 5.93025C13.4297 5.93025 13.9045 5.73741 14.267 5.41936C14.6296 5.73741 15.1044 5.93025 15.6235 5.93025C16.1424 5.93025 16.6172 5.73741 16.9797 5.41936C17.1717 5.58766 17.3932 5.71885 17.6331 5.80626V11.7691H17.6327Z" fill="url(#paint0_linear_392_602)"/>
<path d="M6.27001 23.9972C7.49664 23.9972 8.49456 22.9993 8.49456 21.7727C8.49456 20.5463 7.49659 19.5483 6.27001 19.5483C5.04339 19.5483 4.04565 20.5463 4.04565 21.7727C4.04565 22.9993 5.04339 23.9972 6.27001 23.9972Z" fill="url(#paint1_linear_392_602)"/>
</g>
<defs>
<linearGradient id="paint0_linear_392_602" x1="12" y1="0" x2="12" y2="23.9974" gradientUnits="userSpaceOnUse">
<stop stop-color="white"/>
<stop offset="1" stop-color="#7042D2"/>
</linearGradient>
<linearGradient id="paint1_linear_392_602" x1="6.27011" y1="19.5483" x2="6.27011" y2="23.9972" gradientUnits="userSpaceOnUse">
<stop stop-color="white"/>
<stop offset="1" stop-color="#7042D2"/>
</linearGradient>
<clipPath id="clip0_392_602">
<rect width="24" height="24" fill="white"/>
</clipPath>
</defs>
</svg>
