<svg width="16" height="16" viewBox="0 0 16 16" fill="none" xmlns="http://www.w3.org/2000/svg">
<g clip-path="url(#clip0_49_63)">
<path d="M14.9815 13.503C15.4906 12.7273 15.7573 11.8303 15.7573 10.8364C15.7573 8.12122 13.5512 5.91516 10.8361 5.91516C10.7149 5.91516 10.5937 5.91516 10.4724 5.9394C10.133 8.29092 8.26638 10.1333 5.91487 10.4727C5.91487 10.5939 5.89062 10.7152 5.89062 10.8364C5.89062 13.5515 8.07244 15.7576 10.8118 15.7576C11.7815 15.7576 12.6785 15.4667 13.4543 14.9818L14.7634 15.4424C15.1512 15.5636 15.5149 15.2 15.3937 14.8121L14.9815 13.503ZM9.86638 13.1394C9.86638 13.3091 9.72093 13.4303 9.55123 13.4303H9.09063C8.92093 13.4303 8.79972 13.2849 8.79972 13.1394V9.96365C8.79972 9.79395 8.92093 9.64849 9.09063 9.64849H9.55123C9.72093 9.64849 9.86638 9.79395 9.86638 9.96365V13.1394ZM13.6724 10.9091L13.3573 12.4364C13.2846 12.7515 12.9937 12.9939 12.6785 12.9939H10.2058V9.96365C10.4482 9.89092 10.7149 9.76971 10.8118 9.64849C11.0543 9.38183 11.2967 8.29092 11.2967 8.29092C11.9027 8.29092 12.3634 8.89698 12.1694 9.4788L12.024 10.0606H12.9937C13.43 10.0849 13.7694 10.4727 13.6724 10.9091Z" fill="#7042D2"/>
<path d="M10.0604 5.16364C10.0604 2.44849 7.87855 0.242432 5.13916 0.242432C2.44825 0.242432 0.242188 2.44849 0.242188 5.16364C0.242188 6.13334 0.533097 7.05455 1.01795 7.80607L0.557339 9.11516C0.436127 9.50304 0.799763 9.86667 1.18764 9.74546L2.49673 9.28486C3.27249 9.7697 4.16946 10.0606 5.13916 10.0606C7.87855 10.0606 10.0604 7.8788 10.0604 5.16364ZM5.1634 7.78183C5.1634 7.78183 2.64219 6.32728 2.64219 4.65455C2.64219 3.90304 3.24825 3.27273 4.02401 3.27273C4.50885 3.27273 4.92098 3.51516 5.1634 3.8788C5.40582 3.51516 5.81795 3.27273 6.30279 3.27273C7.05431 3.27273 7.68461 3.8788 7.68461 4.65455C7.66037 6.32728 5.1634 7.78183 5.1634 7.78183Z" fill="#7042D2"/>
</g>
<defs>
<clipPath id="clip0_49_63">
<rect width="16" height="16" fill="white"/>
</clipPath>
</defs>
</svg>
