<svg width="16" height="16" viewBox="0 0 16 16" fill="none" xmlns="http://www.w3.org/2000/svg">
<g clip-path="url(#clip0_564_704)">
<path d="M14.9818 13.5029C15.4909 12.7272 15.7575 11.8302 15.7575 10.8363C15.7575 8.1211 13.5515 5.91504 10.8363 5.91504C10.7151 5.91504 10.5939 5.91504 10.4727 5.93928C10.1333 8.2908 8.26663 10.1332 5.91511 10.4726C5.91511 10.5938 5.89087 10.715 5.89087 10.8363C5.89087 13.5514 8.07269 15.7575 10.8121 15.7575C11.7818 15.7575 12.6787 15.4666 13.4545 14.9817L14.7636 15.4423C15.1515 15.5635 15.5151 15.1999 15.3939 14.812L14.9818 13.5029ZM9.86663 13.1393C9.86663 13.309 9.72117 13.4302 9.55148 13.4302H9.09087C8.92117 13.4302 8.79996 13.2847 8.79996 13.1393V9.96352C8.79996 9.79383 8.92117 9.64837 9.09087 9.64837H9.55148C9.72117 9.64837 9.86663 9.79383 9.86663 9.96352V13.1393ZM13.6727 10.909L13.3575 12.4363C13.2848 12.7514 12.9939 12.9938 12.6787 12.9938H10.206V9.96352C10.4484 9.8908 10.7151 9.76958 10.8121 9.64837C11.0545 9.38171 11.2969 8.2908 11.2969 8.2908C11.903 8.2908 12.3636 8.89686 12.1697 9.47868L12.0242 10.0605H12.9939C13.4303 10.0847 13.7697 10.4726 13.6727 10.909Z" fill="#FA80C9"/>
<path d="M10.0606 5.16364C10.0606 2.44849 7.8788 0.242432 5.1394 0.242432C2.44849 0.242432 0.242432 2.44849 0.242432 5.16364C0.242432 6.13334 0.533341 7.05455 1.01819 7.80607L0.557583 9.11516C0.436371 9.50304 0.800007 9.86667 1.18789 9.74546L2.49698 9.28486C3.27273 9.7697 4.1697 10.0606 5.1394 10.0606C7.8788 10.0606 10.0606 7.8788 10.0606 5.16364ZM5.16364 7.78183C5.16364 7.78183 2.64243 6.32728 2.64243 4.65455C2.64243 3.90304 3.24849 3.27273 4.02425 3.27273C4.5091 3.27273 4.92122 3.51516 5.16364 3.8788C5.40607 3.51516 5.81819 3.27273 6.30304 3.27273C7.05455 3.27273 7.68486 3.8788 7.68486 4.65455C7.66061 6.32728 5.16364 7.78183 5.16364 7.78183Z" fill="#FA80C9"/>
</g>
<defs>
<clipPath id="clip0_564_704">
<rect width="16" height="16" fill="white"/>
</clipPath>
</defs>
</svg>
