<svg width="21" height="20" viewBox="0 0 21 20" fill="none" xmlns="http://www.w3.org/2000/svg">
<path d="M16.9518 0H3.40107C1.52582 0 0 1.59893 0 3.56402V16.0356C0 16.9999 0.379709 17.9348 1.04362 18.6037L1.31384 18.8771C2.64166 20.2173 4.71957 20.2124 6.0404 18.8649C6.44573 18.4523 7.09333 18.4377 7.51265 18.8307L7.80849 19.1041C8.45144 19.7022 9.25744 20 10.0635 20C10.1007 20 10.1357 19.9951 10.1729 19.9951C10.2102 19.9951 10.2452 20 10.2824 20C11.0884 20 11.8968 19.7022 12.5374 19.1041L12.8332 18.8307C13.2549 18.4401 13.9025 18.4523 14.3055 18.8649C15.6286 20.2099 17.7042 20.2148 19.032 18.8771L19.3023 18.6037C19.9638 17.9348 20.3459 16.9999 20.3459 16.0356V3.56402C20.3459 1.59893 18.82 0 16.9448 0H16.9518ZM18.035 16.0356C18.035 16.3432 17.9139 16.641 17.7042 16.8534L17.434 17.1268C17.01 17.5516 16.3508 17.5516 15.9291 17.1244C14.6596 15.8306 12.6282 15.7842 11.3027 17.0145L11.0069 17.2904C10.7739 17.5076 10.4711 17.5979 10.1799 17.5662C9.88874 17.5979 9.5859 17.5076 9.35295 17.2904L9.05711 17.0145C7.73162 15.7842 5.70262 15.833 4.43071 17.1244C4.00907 17.5516 3.34982 17.554 2.92586 17.1268L2.65563 16.8534C2.44365 16.641 2.32484 16.3432 2.32484 16.0356V3.56402C2.32484 2.93909 2.80938 2.4289 3.40806 2.4289H16.9588C17.5551 2.4289 18.042 2.93909 18.042 3.56402V16.0356H18.035Z" fill="#FA80C9"/>
</svg>
