<svg width="13" height="13" viewBox="0 0 13 13" fill="none" xmlns="http://www.w3.org/2000/svg">
<path fill-rule="evenodd" clip-rule="evenodd" d="M8.21192 8.19217L5.54529 10.31V11.353C5.54529 11.4795 5.6807 11.5599 5.79176 11.4993L7.77767 10.4161C8.04541 10.2701 8.21192 9.98947 8.21192 9.68447V8.19217ZM4.54529 10.2757L2.24558 7.97602H1.16832C0.282745 7.97602 -0.279955 7.02813 0.144105 6.25069L1.22732 4.26479C1.54859 3.67581 2.1659 3.30935 2.8368 3.30935H5.14662C6.886 1.45834 8.82831 0.202041 11.3395 0.00352148C12.0131 -0.0497285 12.571 0.508241 12.5178 1.1818C12.3192 3.69302 11.0629 5.6353 9.21192 7.37468V9.68447C9.21192 10.3554 8.84552 10.9728 8.25652 11.294L6.27062 12.3772C5.49318 12.8013 4.54529 12.2386 4.54529 11.353V10.2757ZM4.32913 4.30935H2.8368C2.53185 4.30935 2.25125 4.47592 2.10522 4.74364L1.02199 6.72954C0.961415 6.84061 1.04181 6.97602 1.16832 6.97602H2.21129L4.32913 4.30935Z" fill="#1F2937"/>
</svg>
